<?xml version="1.0" encoding="utf-8"?>
<!-- Generator: Adobe Illustrator 23.0.1, SVG Export Plug-In . SVG Version: 6.00 Build 0)  -->
<svg version="1.1" id="Extra_Large" xmlns="http://www.w3.org/2000/svg" xmlns:xlink="http://www.w3.org/1999/xlink" x="0px"
	 y="0px" viewBox="0 0 147 50" style="enable-background:new 0 0 147 50;" xml:space="preserve">
<style type="text/css">
	.st0{fill:#FA4616;}
</style>
<g>
	<path class="st0" d="M0,0h50v50H0V0z M44.8,44.8V5.2H5.2v39.6H44.8z M9.7,12.9V28c0,6.9,3.8,11,10.2,11c6.6,0,10.4-4.1,10.4-11
		V12.9h-5.2V28c0,3.9-1.7,6.1-5.1,6.1c-3.6,0-5.2-2.3-5.2-6.1V12.9H9.7z M37,16c1.8,0,3.2-1.3,3.2-3.1c0-1.9-1.3-3.2-3.2-3.2
		c-1.8,0-3.2,1.3-3.2,3.2C33.8,14.7,35.2,16,37,16z M34.4,18.4v20.3h5.2V18.4H34.4z M65.4,30.4c5.6,0,9.3-3.3,9.3-8.8
		c0-5.3-3.6-8.7-9.3-8.7h-9.8v25.9h5.2v-8.3H65.4z M64.8,26.3h-4.1v-9.2h4.1c3,0,4.6,1.7,4.6,4.5C69.4,24.6,67.8,26.3,64.8,26.3z
		 M76.4,28.6c0,6.1,3.9,10.4,9.4,10.4c3.3,0,5.4-1.2,6.6-3.1v2.9h5.2V18.4h-5.2v3.2c-1.3-2.1-3.4-3.4-6.6-3.4
		C80.2,18.2,76.4,22.6,76.4,28.6z M92.4,28.6c0,3.5-2.2,5.8-5.4,5.8c-3.5,0-5.3-2.5-5.3-5.8c0-3.6,2-5.9,5.3-5.9
		C90.3,22.7,92.4,25.1,92.4,28.6z M110.6,34.3c-2,0-2.5-0.9-2.5-2.7v-8.8h4.5v-4.4h-4.5v-5.6h-5.2v5.6h-2.4v4.4h2.4v8.8
		c0,4.8,2.1,7.1,7.1,7.1h2.7v-4.4H110.6z M120.7,21.3l0-9.6h-5.2v27.1h5.2V28c0-3.5,1.8-5.6,4.9-5.6c3,0,4.6,2,4.6,5.1v11.2h5.2V27
		c0-5.3-3.8-8.8-8.6-8.8C123.8,18.2,121.9,19.3,120.7,21.3z M135,11.6v0.8h1.7v5.2h1v-5.2h1.6v-0.8C139.3,11.6,135,11.6,135,11.6z
		 M145.8,11.6l-2.1,4.8l-2-4.8h-1.2v6h0.9v-4.6l2,4.6h0.7l1.9-4.6v4.6h0.9v-6H145.8z"/>
</g>
</svg>
